<svg xmlns="http://www.w3.org/2000/svg" viewBox="0 0 9 9">
  <path d="M2 0h2v1h1V0h2v1h1v1h1v3H8v1H7v1H6v1H5v1H4V8H3V7H2V6H1V5H0V2h1V1h1z"/>
  <path fill="#947818" d="M2 1h2v1h1V1h2v1h1v3H7v1H6v1H5v1H4V7H3V6H2V5H1V2h1V1"/>
  <path fill="#8b8712" d="M1 4V2h1V1h2v1h1V1h2v1h1v1H7V2H5v1h1v1H5V3H4V2H2v2z"/>
  <g>
    <path fill="#ac7ba2" d="M2 3V2h1v1z"/>
    <path fill="#685308" d="M1 4h1v1h1v1h1v1h1V6h1V5h1V4h1v1H7v1H6v1H5v1H4V7H3V6H2V5H1V4"/>
    <path fill="#8b8712" d="M3 5V4h1v1z"/>
  </g>
</svg>
